<svg xmlns="http://www.w3.org/2000/svg" viewBox="0 0 24 24" fill="none" stroke="#9333ea" stroke-width="2" stroke-linecap="round" stroke-linejoin="round">
  <path d="M12 5.5C12 3.6 10.4 2 8.5 2S5 3.6 5 5.5c0 .6.2 1.2.5 1.7"/>
  <path d="M12 5.5c0-1.9 1.6-3.5 3.5-3.5s3.5 1.6 3.5 3.5c0 .6-.2 1.2-.5 1.7"/>
  <path d="M12 7.25a2.5 2.5 0 0 1 2.5 2.5v.5a2 2 0 0 1 2 2v5.5a2 2 0 0 1-2 2h-5a2 2 0 0 1-2-2v-5.5a2 2 0 0 1 2-2v-.5a2.5 2.5 0 0 1 2.5-2.5z"/>
  <path d="M10 15h.01"/>
  <path d="M14 15h.01"/>
  <path d="M10 18a4 4 0 0 0 4 0"/>
</svg>
